<?xml version="1.0" encoding="UTF-8" standalone="no"?>
<!DOCTYPE svg PUBLIC "-//W3C//DTD SVG 1.1//EN" "http://www.w3.org/Graphics/SVG/1.1/DTD/svg11.dtd">
<svg width="100%" height="100%" viewBox="0 0 429 130" version="1.1" xmlns="http://www.w3.org/2000/svg" xmlns:xlink="http://www.w3.org/1999/xlink" xml:space="preserve" xmlns:serif="http://www.serif.com/" style="fill-rule:evenodd;clip-rule:evenodd;stroke-linejoin:round;stroke-miterlimit:2;">
    <g transform="matrix(1,0,0,1,-455.928,-201.9)">
        <g transform="matrix(0.593924,0,0,0.593924,-518.335,-329.603)">
            <g transform="matrix(1.29475,0,0,1.29475,496.142,638.261)">
                <path d="M1038.52,230.31L1017.23,250.587C1002.75,235.294 986.46,227.648 968.358,227.648C953.08,227.648 940.21,232.866 929.747,243.303C919.284,253.74 914.053,266.605 914.053,281.899C914.053,292.553 916.37,302.012 921.004,310.276C925.638,318.538 932.191,325.025 940.663,329.736C949.134,334.447 958.547,336.802 968.902,336.802C977.735,336.802 985.809,335.153 993.122,331.855C1000.44,328.557 1008.47,322.56 1017.23,313.863L1037.87,335.377C1026.07,346.895 1014.92,354.882 1004.42,359.337C993.918,363.792 981.935,366.019 968.467,366.019C943.631,366.019 923.303,358.144 907.482,342.396C891.661,326.647 883.75,306.463 883.75,281.845C883.75,265.915 887.352,251.759 894.557,239.378C901.762,226.996 912.08,217.04 925.511,209.51C938.943,201.979 953.406,198.214 968.902,198.214C982.08,198.214 994.769,200.997 1006.97,206.564C1019.17,212.13 1029.69,220.046 1038.52,230.31Z" style="fill:rgb(50,50,50);fill-rule:nonzero;"/>
            </g>
            <g transform="matrix(1.29475,0,0,1.29475,496.142,638.261)">
                <path d="M1106.25,240.79C1117.4,240.79 1127.88,243.577 1137.69,249.153C1147.51,254.728 1155.16,262.295 1160.67,271.853C1166.17,281.41 1168.92,291.728 1168.92,302.807C1168.92,313.958 1166.15,324.384 1160.61,334.087C1155.07,343.789 1147.52,351.374 1137.97,356.841C1128.41,362.308 1117.87,365.041 1106.36,365.041C1089.42,365.041 1074.95,359.013 1062.97,346.957C1050.99,334.901 1045,320.257 1045,303.024C1045,284.56 1051.77,269.173 1065.31,256.864C1077.18,246.148 1090.83,240.79 1106.25,240.79ZM1106.69,268.703C1097.49,268.703 1089.83,271.907 1083.71,278.315C1077.6,284.723 1074.54,292.923 1074.54,302.915C1074.54,313.197 1077.56,321.524 1083.61,327.896C1089.65,334.268 1097.31,337.454 1106.58,337.454C1115.85,337.454 1123.56,334.232 1129.71,327.787C1135.87,321.343 1138.94,313.052 1138.94,302.915C1138.94,292.778 1135.92,284.542 1129.87,278.206C1123.83,271.871 1116.1,268.703 1106.69,268.703Z" style="fill:rgb(50,50,50);fill-rule:nonzero;"/>
            </g>
            <g transform="matrix(1.29475,0,0,1.29475,496.142,638.261)">
                <path d="M1273.79,198.214L1303.33,198.214L1303.33,362L1273.79,362L1273.79,349.51C1268,355.013 1262.19,358.977 1256.36,361.403C1250.53,363.828 1244.21,365.041 1237.41,365.041C1222.13,365.041 1208.91,359.122 1197.76,347.283C1186.61,335.445 1181.04,320.728 1181.04,303.133C1181.04,284.886 1186.43,269.934 1197.22,258.276C1208.01,246.619 1221.11,240.79 1236.54,240.79C1243.63,240.79 1250.3,242.129 1256.52,244.808C1262.75,247.487 1268.51,251.506 1273.79,256.864L1273.79,198.214ZM1242.62,268.16C1233.42,268.16 1225.79,271.4 1219.7,277.88C1213.62,284.361 1210.58,292.67 1210.58,302.807C1210.58,313.016 1213.67,321.416 1219.87,328.005C1226.06,334.594 1233.68,337.888 1242.73,337.888C1252.07,337.888 1259.82,334.648 1265.97,328.168C1272.13,321.687 1275.2,313.197 1275.2,302.698C1275.2,292.416 1272.13,284.089 1265.97,277.718C1259.82,271.346 1252.03,268.16 1242.62,268.16Z" style="fill:rgb(50,50,50);fill-rule:nonzero;"/>
            </g>
            <g transform="matrix(1.29475,0,0,1.29475,496.142,638.261)">
                <path d="M1440.58,311.496L1345.32,311.496C1346.7,319.895 1350.37,326.575 1356.35,331.535C1362.32,336.494 1369.94,338.974 1379.21,338.974C1390.29,338.974 1399.81,335.101 1407.77,327.353L1432.76,339.083C1426.53,347.917 1419.07,354.452 1410.38,358.687C1401.69,362.923 1391.37,365.041 1379.43,365.041C1360.89,365.041 1345.79,359.194 1334.13,347.5C1322.48,335.807 1316.65,321.162 1316.65,303.567C1316.65,285.538 1322.46,270.567 1334.08,258.656C1345.7,246.745 1360.28,240.79 1377.8,240.79C1396.41,240.79 1411.54,246.745 1423.2,258.656C1434.85,270.567 1440.68,286.298 1440.68,305.848L1440.58,311.496ZM1410.82,288.144C1408.86,281.555 1405,276.197 1399.25,272.07C1393.49,267.943 1386.81,265.879 1379.21,265.879C1370.95,265.879 1363.71,268.196 1357.49,272.83C1353.58,275.726 1349.96,280.831 1346.63,288.144L1410.82,288.144Z" style="fill:rgb(50,50,50);fill-rule:nonzero;"/>
            </g>
        </g>
    </g>
</svg>
