<?xml version="1.0" encoding="UTF-8" standalone="no"?>
<!DOCTYPE svg PUBLIC "-//W3C//DTD SVG 1.1//EN" "http://www.w3.org/Graphics/SVG/1.1/DTD/svg11.dtd">
<svg width="100%" height="100%" viewBox="0 0 226 130" version="1.1" xmlns="http://www.w3.org/2000/svg" xmlns:xlink="http://www.w3.org/1999/xlink" xml:space="preserve" xmlns:serif="http://www.serif.com/" style="fill-rule:evenodd;clip-rule:evenodd;stroke-linejoin:round;stroke-miterlimit:2;">
    <g transform="matrix(1,0,0,1,-895.69,-201.9)">
        <g transform="matrix(0.593924,0,0,0.593924,-518.335,-329.603)">
            <g transform="matrix(1.29475,0,0,1.29475,496.142,638.261)">
                <path d="M1616.48,229.06L1604.1,240.79C1595.19,232.028 1585.43,225.385 1574.83,220.86C1564.22,216.334 1553.88,214.071 1543.82,214.071C1531.29,214.071 1519.36,217.149 1508.03,223.303C1496.7,229.458 1487.92,237.803 1481.69,248.338C1475.46,258.874 1472.35,270.006 1472.35,281.736C1472.35,293.756 1475.57,305.178 1482.02,316.003C1488.46,326.828 1497.37,335.336 1508.74,341.527C1520.1,347.718 1532.56,350.813 1546.1,350.813C1562.53,350.813 1576.44,346.179 1587.8,336.911C1599.17,327.643 1605.91,315.623 1608.01,300.852L1557.07,300.852L1557.07,285.429L1625.93,285.429C1625.78,310.12 1618.45,329.724 1603.93,344.242C1589.41,358.76 1569.99,366.019 1545.66,366.019C1516.12,366.019 1492.73,355.954 1475.5,335.825C1462.25,320.329 1455.62,302.409 1455.62,282.062C1455.62,266.929 1459.42,252.846 1467.03,239.812C1474.63,226.779 1485.06,216.587 1498.31,209.238C1511.56,201.889 1526.55,198.214 1543.27,198.214C1556.81,198.214 1569.56,200.658 1581.5,205.545C1593.45,210.433 1605.11,218.271 1616.48,229.06Z" style="fill:rgb(50,50,50);fill-rule:nonzero;"/>
            </g>
            <g transform="matrix(1.29475,0,0,1.29475,496.142,638.261)">
                <path d="M1646.09,202.233L1677.91,202.233C1695.65,202.233 1707.67,202.958 1713.97,204.408C1723.45,206.583 1731.16,211.241 1737.1,218.382C1743.04,225.523 1746.01,234.314 1746.01,244.754C1746.01,253.454 1743.96,261.103 1739.87,267.7C1735.78,274.297 1729.93,279.281 1722.33,282.653C1714.73,286.024 1704.23,287.746 1690.83,287.818L1748.29,362L1728.52,362L1671.17,287.818L1662.05,287.818L1662.05,362L1646.09,362L1646.09,202.233ZM1662.05,217.873L1662.05,272.178L1689.53,272.397C1700.17,272.397 1708.05,271.384 1713.15,269.356C1718.26,267.329 1722.24,264.089 1725.1,259.635C1727.96,255.182 1729.39,250.204 1729.39,244.7C1729.39,239.342 1727.94,234.472 1725.05,230.091C1722.15,225.711 1718.35,222.579 1713.64,220.697C1708.93,218.814 1701.11,217.873 1690.18,217.873L1662.05,217.873Z" style="fill:rgb(50,50,50);fill-rule:nonzero;"/>
            </g>
        </g>
    </g>
</svg>
