<?xml version="1.0" encoding="UTF-8" standalone="no"?>
<!DOCTYPE svg PUBLIC "-//W3C//DTD SVG 1.1//EN" "http://www.w3.org/Graphics/SVG/1.1/DTD/svg11.dtd">
<svg width="100%" height="100%" viewBox="0 0 326 160" version="1.1" xmlns="http://www.w3.org/2000/svg" xmlns:xlink="http://www.w3.org/1999/xlink" xml:space="preserve" xmlns:serif="http://www.serif.com/" style="fill-rule:evenodd;clip-rule:evenodd;stroke-linejoin:round;stroke-miterlimit:2;">
    <g transform="matrix(1,0,0,1,-123.255,-201.9)">
        <g transform="matrix(0.593924,0,0,0.593924,-518.335,-329.603)">
            <g transform="matrix(1.29475,0,0,1.29475,496.142,638.261)">
                <path d="M451.138,202.233L483.396,202.233C500.846,202.233 513.427,203.844 521.138,207.066C528.85,210.288 534.932,215.501 539.385,222.706C543.838,229.91 546.064,238.545 546.064,248.61C546.064,259.761 543.15,269.029 537.321,276.414C531.492,283.8 523.582,288.941 513.59,291.837C507.725,293.502 497.045,294.335 481.549,294.335L481.549,362L451.138,362L451.138,202.233ZM481.549,264.684L491.216,264.684C498.818,264.684 504.104,264.139 507.073,263.05C510.042,261.96 512.377,260.163 514.078,257.657C515.78,255.15 516.631,252.116 516.631,248.557C516.631,242.381 514.241,237.876 509.462,235.043C505.987,232.937 499.543,231.884 490.13,231.884L481.549,231.884L481.549,264.684Z" style="fill:rgb(50,50,50);fill-rule:nonzero;"/>
            </g>
            <g transform="matrix(1.29475,0,0,1.29475,496.142,638.261)">
                <rect x="566.079" y="198.214" width="29.651" height="163.786" style="fill:rgb(50,50,50);fill-rule:nonzero;"/>
            </g>
            <g transform="matrix(1.29475,0,0,1.29475,496.142,638.261)">
                <path d="M706.544,243.831L736.087,243.831L736.087,362L706.544,362L706.544,349.51C700.752,355.013 694.941,358.977 689.112,361.403C683.283,363.828 676.966,365.041 670.159,365.041C654.881,365.041 641.667,359.122 630.516,347.283C619.366,335.445 613.79,320.728 613.79,303.133C613.79,284.886 619.184,269.934 629.973,258.276C640.762,246.619 653.868,240.79 669.291,240.79C676.386,240.79 683.048,242.129 689.275,244.808C695.502,247.487 701.258,251.506 706.544,256.864L706.544,243.831ZM675.373,268.16C666.177,268.16 658.538,271.4 652.456,277.88C646.374,284.361 643.332,292.67 643.332,302.807C643.332,313.016 646.428,321.416 652.619,328.005C658.81,334.594 666.43,337.888 675.481,337.888C684.822,337.888 692.57,334.648 698.724,328.168C704.879,321.687 707.956,313.197 707.956,302.698C707.956,292.416 704.879,284.089 698.724,277.718C692.57,271.346 684.786,268.16 675.373,268.16Z" style="fill:rgb(50,50,50);fill-rule:nonzero;"/>
            </g>
            <g transform="matrix(1.29475,0,0,1.29475,496.142,638.261)">
                <path d="M749.585,243.831L779.887,243.831L810.624,317.987L844.511,243.831L874.922,243.831L800.849,405.227L770.221,405.227L794.55,353.172L749.585,243.831Z" style="fill:rgb(50,50,50);fill-rule:nonzero;"/>
            </g>
        </g>
    </g>
</svg>
